<svg xmlns="http://www.w3.org/2000/svg" height="1200" width="1600" version="1.1" xmlns:xlink="http://www.w3.org/1999/xlink" xmlns:svgjs="http://svgjs.com/svgjs"><rect fill="#e9f3ef" width="1600" height="1200"></rect><g><path d="M1323.91 673.09H252.82V646.2H1323.91V673.09Z" fill="#2c5b47" opacity="1" stroke-width="4" stroke="none"></path></g><g><path d="M975.82 111.49H1322.84C1326.12 111.49 1329.36 112.14 1332.39 113.39 1335.41 114.64 1338.16 116.48 1340.48 118.8 1342.8 121.12 1344.64 123.87 1345.89 126.89 1347.14 129.92 1347.79 133.16 1347.79 136.44V405.13C1347.79 408.4 1347.14 411.65 1345.89 414.67 1344.64 417.7 1342.8 420.45 1340.48 422.77 1338.16 425.08 1335.41 426.92 1332.39 428.17 1329.36 429.43 1326.12 430.07 1322.84 430.07H975.82C972.54 430.07 969.3 429.43 966.27 428.17 963.24 426.92 960.49 425.08 958.18 422.77 955.86 420.45 954.02 417.7 952.77 414.67 951.51 411.65 950.87 408.4 950.87 405.13V136.44C950.87 133.16 951.51 129.92 952.77 126.89 954.02 123.87 955.86 121.12 958.18 118.8 960.49 116.48 963.24 114.64 966.27 113.39 969.3 112.14 972.54 111.49 975.82 111.49Z" fill="#ffffff" opacity="1" stroke-width="4" stroke="none"></path><path d="M1007.26 209.28H1115.6C1118.92 209.28 1122.09 210.6 1124.44 212.94 1126.78 215.29 1128.1 218.46 1128.1 221.78 1128.1 225.09 1126.78 228.27 1124.44 230.61 1122.09 232.96 1118.92 234.27 1115.6 234.28H1007.26C1003.95 234.27 1000.77 232.96 998.43 230.61 996.08 228.27 994.77 225.09 994.76 221.78 994.77 218.46 996.08 215.29 998.43 212.94 1000.77 210.6 1003.95 209.28 1007.26 209.28Z" fill="#a0ffd2" opacity="1" stroke-width="4" stroke="none"></path><path d="M1007.26 260.95H1070.6C1073.91 260.95 1077.09 262.27 1079.43 264.61 1081.78 266.96 1083.1 270.14 1083.1 273.45 1083.1 276.76 1081.78 279.94 1079.43 282.28 1077.09 284.63 1073.91 285.94 1070.6 285.95H1007.26C1003.95 285.94 1000.77 284.63 998.43 282.28 996.08 279.94 994.77 276.76 994.76 273.45 994.77 270.14 996.08 266.96 998.43 264.61 1000.77 262.27 1003.95 260.95 1007.26 260.95Z" fill="#30ffb0" opacity="1" stroke-width="4" stroke="none"></path><path d="M1112.27 260.95H1132.27C1135.59 260.95 1138.76 262.27 1141.11 264.61 1143.45 266.96 1144.77 270.14 1144.77 273.45 1144.77 276.76 1143.45 279.94 1141.11 282.28 1138.76 284.63 1135.59 285.94 1132.27 285.95H1112.27C1108.96 285.94 1105.78 284.63 1103.44 282.28 1101.09 279.94 1099.77 276.76 1099.77 273.45 1099.77 270.14 1101.09 266.96 1103.44 264.61 1105.78 262.27 1108.96 260.95 1112.27 260.95Z" fill="#61ffa4" opacity="1" stroke-width="4" stroke="none"></path><path d="M1007.26 312.62H1022.82C1026.13 312.62 1029.31 313.94 1031.65 316.29 1034 318.63 1035.31 321.81 1035.32 325.12 1035.31 328.43 1034 331.61 1031.65 333.95 1029.31 336.3 1026.13 337.62 1022.82 337.62H1007.26C1003.95 337.62 1000.77 336.3 998.43 333.95 996.08 331.61 994.77 328.43 994.76 325.12 994.77 321.81 996.08 318.63 998.43 316.29 1000.77 313.94 1003.95 312.62 1007.26 312.62Z" fill="#30ffb0" opacity="1" stroke-width="4" stroke="none"></path><path d="M1064.49 312.62H1157.83C1161.14 312.62 1164.32 313.94 1166.66 316.29 1169.01 318.63 1170.32 321.81 1170.33 325.12 1170.32 328.43 1169.01 331.61 1166.66 333.95 1164.32 336.3 1161.14 337.62 1157.83 337.62H1064.49C1061.17 337.62 1058 336.3 1055.65 333.95 1053.31 331.61 1051.99 328.43 1051.99 325.12 1051.99 321.81 1053.31 318.63 1055.65 316.29 1058 313.94 1061.17 312.62 1064.49 312.62Z" fill="#61ffa4" opacity="1" stroke-width="4" stroke="none"></path><path d="M1199.5 312.62H1279.5C1282.82 312.62 1285.99 313.94 1288.34 316.29 1290.68 318.63 1292 321.81 1292.01 325.12 1292 328.43 1290.68 331.61 1288.34 333.95 1285.99 336.3 1282.82 337.62 1279.5 337.62H1199.5C1196.18 337.62 1193.01 336.3 1190.66 333.95 1188.32 331.61 1187 328.43 1187 325.12 1187 321.81 1188.32 318.63 1190.66 316.29 1193.01 313.94 1196.18 312.62 1199.5 312.62Z" fill="#2c5b47" opacity="1" stroke-width="4" stroke="none"></path><path d="M1007.26 364.29H1057.27C1060.58 364.29 1063.76 365.61 1066.1 367.96 1068.44 370.3 1069.76 373.48 1069.77 376.79 1069.76 380.1 1068.44 383.28 1066.1 385.62 1063.76 387.97 1060.58 389.29 1057.27 389.29H1007.26C1003.95 389.29 1000.77 387.97 998.43 385.62 996.08 383.28 994.77 380.1 994.76 376.79 994.77 373.48 996.08 370.3 998.43 367.96 1000.77 365.61 1003.95 364.29 1007.26 364.29Z" fill="#ffffff" opacity="1" stroke-width="4" stroke="none"></path><path d="M1098.94 364.29H1110.05C1113.36 364.29 1116.54 365.61 1118.88 367.96 1121.22 370.3 1122.54 373.48 1122.55 376.79 1122.54 380.1 1121.22 383.28 1118.88 385.62 1116.54 387.97 1113.36 389.29 1110.05 389.29H1098.94C1095.62 389.29 1092.44 387.97 1090.1 385.62 1087.76 383.28 1086.44 380.1 1086.43 376.79 1086.44 373.48 1087.76 370.3 1090.1 367.96 1092.44 365.61 1095.62 364.29 1098.94 364.29Z" fill="#30ffb0" opacity="1" stroke-width="4" stroke="none"></path><path d="M1151.72 364.29H1217.83C1221.15 364.29 1224.32 365.61 1226.67 367.96 1229.01 370.3 1230.33 373.48 1230.33 376.79 1230.33 380.1 1229.01 383.28 1226.67 385.62 1224.32 387.97 1221.15 389.29 1217.83 389.29H1151.72C1148.4 389.29 1145.23 387.97 1142.88 385.62 1140.54 383.28 1139.22 380.1 1139.22 376.79 1139.22 373.48 1140.54 370.3 1142.88 367.96 1145.23 365.61 1148.4 364.29 1151.72 364.29Z" fill="#a0ffd2" opacity="1" stroke-width="4" stroke="none"></path><path d="M975.82 111.49H1322.84C1326.12 111.49 1329.36 112.14 1332.39 113.39 1335.41 114.64 1338.16 116.48 1340.48 118.8 1342.8 121.12 1344.64 123.87 1345.89 126.89 1347.14 129.92 1347.79 133.16 1347.79 136.44V162.61H950.87V136.44C950.87 133.16 951.51 129.92 952.77 126.89 954.02 123.87 955.86 121.12 958.18 118.8 960.49 116.48 963.24 114.64 966.27 113.39 969.3 112.14 972.54 111.49 975.82 111.49Z" fill="#a0ffd2" opacity="1" stroke-width="4" stroke="none"></path><path d="M1311.12 148.22C1317.13 148.22 1322.01 143.34 1322.01 137.33 1322.01 131.31 1317.13 126.44 1311.12 126.44 1305.1 126.44 1300.23 131.31 1300.23 137.33 1300.23 143.34 1305.1 148.22 1311.12 148.22Z" stroke="#ffffff" stroke-width="4" stroke-linecap="round" stroke-linejoin="round" opacity="1" fill="none"></path><path d="M1299.51 148.94L1303.45 144.99" stroke="#ffffff" stroke-width="4" stroke-linecap="round" stroke-linejoin="round" opacity="1" fill="none"></path></g><g><path d="M865.29 645.94L878.91 568.54 964.01 568.52 952.95 631.26C952.23 635.39 950.09 639.13 946.89 641.83 943.68 644.52 939.62 645.98 935.42 645.94H865.29Z" fill="#32ff99" opacity="1" stroke-width="4" stroke="none"></path><path d="M873 602.42L878.99 568.54 964.09 568.52 954.25 624.51 873 602.42Z" fill="#091d13" opacity="0.3" stroke-width="4" stroke="none"></path><path d="M791.4 597.72C787.12 597.84 782.87 597.01 778.97 595.28 775.06 593.56 771.58 590.97 768.78 587.74 766.01 584.32 764.03 580.33 763 576.05 761.97 571.77 761.9 567.3 762.8 562.99L791.18 402.05C794.56 382.91 812.88 367.34 832.01 367.34H1076.16C1080.44 367.22 1084.68 368.05 1088.59 369.78 1092.5 371.5 1095.98 374.08 1098.78 377.32 1101.55 380.74 1103.53 384.73 1104.56 389.01 1105.59 393.29 1105.66 397.74 1104.76 402.05L1076.38 563.01C1072.98 582.15 1054.66 597.72 1035.54 597.72H791.4Z" fill="#32ff99" opacity="1" stroke-width="4" stroke="none"></path><path d="M787.73 530.31L809.99 404.12C810.94 399.4 813.46 395.12 817.13 392.01 820.8 388.88 825.42 387.08 830.22 386.9H1071.08C1073.22 386.83 1075.33 387.25 1077.28 388.12 1079.22 388.98 1080.95 390.26 1082.33 391.87 1083.72 393.56 1084.68 395.54 1085.21 397.67 1085.72 399.79 1085.75 401.99 1085.31 404.13L1063.02 530.31H787.73Z" fill="#e5f7ee" opacity="1" stroke-width="4" stroke="none"></path><path d="M916.86 578.2C915.07 578.26 913.28 577.93 911.62 577.2 909.98 576.49 908.51 575.41 907.32 574.05 906.16 572.7 905.29 571.09 904.82 569.35 904.33 567.61 904.26 565.8 904.58 564.02 905.26 559.81 907.39 555.97 910.59 553.14 913.79 550.32 917.86 548.7 922.14 548.54 923.87 548.51 925.59 548.83 927.2 549.49 928.81 550.17 930.24 551.17 931.45 552.43 936.5 557.95 935.25 567.34 928.65 573.38 925.46 576.37 921.26 578.1 916.86 578.2V578.2Z" fill="#091d13" opacity="1" stroke-width="4" stroke="none"></path><path d="M873.56 597.84H958.65" stroke="#091d13" stroke-width="4" stroke-linecap="round" stroke-linejoin="round" opacity="1" fill="none"></path><path d="M867.83 632.04H952.91" stroke="#091d13" stroke-width="4" stroke-linecap="round" stroke-linejoin="round" opacity="1" fill="none"></path><path d="M835.69 645.94L835.84 645.25C836.51 641.43 838.53 637.96 841.5 635.47 844.48 632.97 848.24 631.6 852.13 631.6H952.91C952.2 635.63 950.1 639.26 946.97 641.88 943.84 644.51 939.89 645.94 935.81 645.94H835.69Z" fill="#32ff99" opacity="1" stroke-width="4" stroke="none"></path></g><g><path d="M468.07 462.13C477.76 462.13 485.6 454.29 485.6 444.6 485.6 434.92 477.76 427.07 468.07 427.07 458.4 427.07 450.54 434.92 450.54 444.6 450.54 454.29 458.4 462.13 468.07 462.13Z" fill="#30ffb0" opacity="1" stroke-width="4" stroke="none"></path><path d="M420.96 394.08C419.63 394.08 418.3 393.49 417.48 392.46L407.13 379.96C405.5 378.03 405.79 375.15 407.72 373.6L407.94 373.45C408.75 372.78 409.79 372.41 410.82 372.41 412.16 372.41 413.49 373 414.3 374.04L424.66 386.54C425.4 387.5 425.77 388.68 425.69 389.87 425.54 391.05 425.03 392.16 424.06 392.97L423.84 393.12C423.03 393.71 421.99 394.08 420.96 394.08Z" fill="#626363" opacity="1" stroke-width="4" stroke="none"></path><path d="M334.93 631.74V485.51L276.43 534.1C275.02 535.29 273.17 535.95 271.32 535.95 268.96 535.95 266.66 534.92 265.18 533.07L264.96 532.85C262.15 529.44 262.6 524.34 266 521.53L423.84 390.61 432.79 404.37 351.28 471.97V631.74H334.93Z" fill="#a0ffd2" opacity="1" stroke-width="4" stroke="none"></path><path d="M351.28 606.22L334.93 591.8V631.74H351.28V606.22Z" fill="#626363" opacity="0.2" stroke-width="4" stroke="none"></path><path d="M342.7 485.36C352.1 485.36 359.71 477.74 359.71 468.35 359.71 458.95 352.1 451.33 342.7 451.33 333.31 451.33 325.69 458.95 325.69 468.35 325.69 477.74 333.31 485.36 342.7 485.36Z" fill="#626363" opacity="1" stroke-width="4" stroke="none"></path><path d="M342.7 474.86C346.3 474.86 349.21 471.94 349.21 468.35 349.21 464.75 346.3 461.84 342.7 461.84 339.11 461.84 336.19 464.75 336.19 468.35 336.19 471.94 339.11 474.86 342.7 474.86Z" fill="#a1ffd2" opacity="1" stroke-width="4" stroke="none"></path><path d="M482.13 434.69L455.72 456.51" stroke="#17151c" stroke-width="4" stroke-linecap="round" stroke-linejoin="round" opacity="1" fill="none"></path><path d="M429.24 472.04C423.4 462.87 420.59 451.85 421.33 440.98L422.88 418.64C423.25 413.76 421.7 409.03 418.59 405.25L412.45 397.86C407.94 392.46 408.68 384.39 414.15 379.88 416.45 377.96 419.33 376.92 422.29 376.92 426.14 376.92 429.69 378.62 432.13 381.51L438.27 388.91C441.37 392.68 445.81 395.05 450.62 395.64L472.88 398.23C483.68 399.48 493.96 404.29 501.88 411.76L504.54 414.2 431.31 475 429.24 472.04Z" fill="#a0ffd2" opacity="1" stroke-width="4" stroke="none"></path><path d="M422.44 413.02C421.77 410.21 420.51 407.62 418.59 405.33L413.49 399.19" stroke="#17151c" stroke-width="4" stroke-linecap="round" stroke-linejoin="round" opacity="1" fill="none"></path><path d="M295.95 645.13C295.95 635.66 302.32 627.3 311.41 624.86L334.86 618.42H351.21L374.88 624.86C383.97 627.37 390.34 635.66 390.34 645.13H295.95Z" fill="#a0ffd2" opacity="1" stroke-width="4" stroke="none"></path><path d="M490.56 403.55L423.55 458.95" stroke="#17151c" stroke-width="4" stroke-linecap="round" stroke-linejoin="round" opacity="1" fill="none"></path><path d="M334.93 618.35H351.28" stroke="#17151c" stroke-width="4" stroke-linecap="round" stroke-linejoin="round" opacity="1" fill="none"></path></g><g><path d="M908.81 462.22H872.28L907.39 428.19 895.31 487.79" stroke="#2c5b47" stroke-width="4" stroke-linecap="round" stroke-linejoin="round" opacity="1" fill="none"></path><path d="M996.09 462.22H959.49L994.67 428.19 982.58 487.79" stroke="#2c5b47" stroke-width="4" stroke-linecap="round" stroke-linejoin="round" opacity="1" fill="none"></path><path d="M938.24 428.19H944.72C951.65 428.19 956.13 433.81 954.72 440.75L947.85 474.64C946.45 481.58 939.69 487.2 932.76 487.2H926.28C919.34 487.2 914.87 481.58 916.27 474.64L923.14 440.75C924.55 433.81 931.3 428.19 938.24 428.19Z" stroke="#2c5b47" stroke-width="4" stroke-linecap="round" stroke-linejoin="round" opacity="1" fill="none"></path></g><g><path d="M903.06 1018.37C903.06 1018.37 887.92 999.23 875.84 981.22 867.45 968.74 860.39 952.88 859.16 934.25 858.55 925.86 858.24 916.04 858.04 907.34 858.04 906.83 847.91 902.53 847.91 902.02L745.06 907.24C748.95 959.84 761.64 1002.71 770.44 1027.07L912.79 1035.87C910.23 1031.57 903.06 1018.37 903.06 1018.37Z" fill="#b35f37" opacity="1" stroke-width="4" stroke="none"></path><path d="M841.05 1027.07L919.64 1027.48C919.74 1027.48 919.85 1027.17 919.74 1027.07 917.19 1022.87 913.4 1018.37 908.18 1014.48 902.86 1010.49 887.82 999.13 875.84 981.33 875.84 981.33 875.74 981.22 875.74 981.33 857.12 989.1 843.51 1006.29 841.05 1027.07 841.05 1027.07 840.95 1026.97 841.05 1027.07Z" fill="#61ffa4" opacity="1" stroke-width="4" stroke="none"></path><path d="M816.69 695.51C779.24 670.95 632.8 638.4 632.8 638.4H519.11L509.9 694.79C501.71 745.14 540.7 790.68 591.87 790.68L733.5 790.78C724.49 832.22 742.6 872.03 745.16 907.24L858.04 907.34C856.2 822.5 868.07 729.17 816.69 695.51Z" fill="#30ffb0" opacity="1" stroke-width="4" stroke="none"></path><path d="M820.17 953.9C820.17 896.59 847.29 828.85 840.95 784.44L795.31 812.07C765.53 879.09 788.14 987.36 797.97 1027.07H852.41C840.13 1014.79 820.17 978.97 820.17 953.9Z" fill="#36b584" opacity="0.2" stroke-width="4" stroke="none"></path><path d="M919.74 1027.07H881.68 797.97 770.54C770.44 1027.07 770.44 1027.17 770.44 1027.17 775.15 1040.47 778.83 1048.15 779.14 1048.87 779.14 1048.87 779.14 1048.97 779.24 1048.97H925.07C925.17 1048.97 925.17 1048.97 925.17 1048.87 925.37 1047.84 926.29 1037.92 919.74 1027.07Z" fill="#1f3026" opacity="1" stroke-width="4" stroke="none"></path><path d="M833.68 1011.41C823.14 1003.43 818.33 994.22 812.91 987.06 803.19 974.16 800.93 961.78 802.98 948.27 803.8 943.05 806.56 933.13 810.25 920.95 811.58 916.65 813.11 911.94 814.55 907.13L759.9 903.45 708.12 907.03C707.61 912.56 707.09 918.19 706.69 923.71 706.69 923.71 705.66 961.88 707.61 982.04 709.04 996.78 714.87 1007.83 718.45 1023.08L757.65 1027.07 787.63 1038.63 845.04 1038.02C844.53 1029.93 846.58 1023.79 833.68 1011.41Z" fill="#b35f37" opacity="1" stroke-width="4" stroke="none"></path><path d="M837.78 836.52C842.28 821.89 848.32 800.19 850.46 791.7 858.24 759.57 872.36 700.11 799.71 672.17 728.79 646.39 644.36 638.1 644.36 638.1L574.57 633.29 510 638.1C494.34 684.97 463.44 790.68 563.62 790.68 573.34 790.68 582.76 790.68 591.87 790.68 676.6 790.68 733.5 790.78 733.5 790.78 733.5 790.78 730.02 799.89 725.62 815.65 723.88 821.68 722.04 828.64 720.09 836.52 714.36 859.75 710.37 883.29 708.12 907.03L814.55 907.13C821.71 885.23 830.71 858.73 837.78 836.52Z" fill="#30ffb0" opacity="1" stroke-width="4" stroke="none"></path><path d="M852.41 1027.17C852.51 1027.17 852.61 1027.07 852.51 1026.97 848.32 1020.21 842.69 1014.07 836.34 1009.36 825.9 1001.48 818.33 994.12 813.01 987.16H812.91C799.4 995.86 790.09 1010.8 787.73 1027.48 787.73 1027.68 787.84 1027.89 788.04 1027.89L822.12 1031.98 852.41 1027.17Z" fill="#61ffa4" opacity="1" stroke-width="4" stroke="none"></path><path d="M715.08 1027.07H757.55C757.65 1027.07 757.65 1026.97 757.65 1026.97 752.94 1002.92 732.58 984.4 707.71 982.04 707.61 982.04 707.61 982.04 707.61 982.14 709.04 996.88 711.39 1011.82 715.08 1027.07 714.97 1027.07 714.97 1027.07 715.08 1027.07Z" fill="#61ffa4" opacity="1" stroke-width="4" stroke="none"></path><path d="M725.82 815.54L768.19 790.98C768.29 790.88 768.29 790.78 768.09 790.78H733.5C733.5 790.78 733.39 790.78 733.39 790.88 732.99 791.91 730.02 800.09 725.52 815.44 725.62 815.44 725.72 815.54 725.82 815.54Z" fill="#36b584" opacity="0.2" stroke-width="4" stroke="none"></path><path d="M859.37 1046.92C859.16 1043.95 858.24 1036.59 852.61 1026.97 848.42 1020.11 842.79 1014.07 836.34 1009.26 806.67 986.85 799.81 969.15 802.98 948.17 803.8 942.95 806.56 933.02 810.25 920.85 811.58 916.55 813.11 911.84 814.55 907.03 821.61 885.03 830.51 858.63 837.57 836.52 842.07 821.89 848.11 800.19 850.26 791.7 851.69 786.07 853.23 779.52 854.35 772.56" stroke="#36b584" stroke-width="4" stroke-linecap="round" stroke-linejoin="round" opacity="1" fill="none"></path><path d="M768.19 790.98L733.5 790.78" stroke="#36b584" stroke-width="4" stroke-linecap="round" stroke-linejoin="round" opacity="1" fill="none"></path><path d="M537.83 333.35C535.38 350.64 533.03 432.92 533.03 432.92L601.08 431.28 605.17 421.15V415.52C613.05 419.31 634.03 422.17 643.55 411.84 652.96 401.71 652.14 390.14 650.4 378.78 650.3 378.37 650.5 377.86 650.91 377.66 653.06 376.33 659.92 371.72 659.82 367.63 659.71 363.95 652.45 360.88 650.61 360.16 650.4 360.06 650.2 359.85 650.2 359.55 650.3 350.23 650.2 340.72 649.28 332.53 648.66 326.59 647.54 321.37 645.69 317.28 637.51 299.88 620.93 292.21 593.2 289.34 561.37 285.87 539.57 318.2 537.83 333.35Z" fill="#b35f37" opacity="1" stroke-width="4" stroke="none"></path><path d="M878.5 489.61C884.03 483.06 877.28 479.28 876.66 478.87V478.76C881.16 467.61 869.7 468.02 868.78 468.12 868.78 468.12 868.68 468.12 868.68 468.02 866.74 457.79 833.27 470.07 830.82 470.99 830.71 470.99 830.71 470.99 830.71 470.88 830.92 469.55 832.25 460.34 827.75 460.34 822.83 460.34 810.25 469.14 790.7 485.72 781.8 493.4 750.18 522.97 749.05 524 749.05 524 749.05 524 749.05 524.1L749.15 530.14 793.16 569.02 797.97 569.53C797.97 569.53 798.07 569.53 798.07 569.43L803.9 556.64C804.11 556.23 804.41 556.03 804.82 555.92 828.16 552.24 834.6 529.93 849.95 524.3 865.61 518.47 878.3 513.66 878.3 507.72 878.3 502.92 860.19 504.86 853.23 505.78 852.82 505.88 852.61 505.27 853.02 505.06 858.75 502.4 873.9 495.04 878.5 489.61Z" fill="#b35f37" opacity="1" stroke-width="4" stroke="none"></path><path d="M576.31 364.36L583.17 369.37" stroke="#422e25" stroke-width="4" stroke-linecap="round" stroke-linejoin="round" opacity="1" fill="none"></path><path d="M627.07 376.74C628.4 379.3 631.06 380.83 633.93 380.63" stroke="#422e25" stroke-width="4" stroke-linecap="round" stroke-linejoin="round" opacity="1" fill="none"></path><path d="M605.17 415.52C601.38 413.17 597.39 410.61 594.02 408.26" stroke="#422e25" stroke-width="4" stroke-linecap="round" stroke-linejoin="round" opacity="1" fill="none"></path><path d="M605.17 431.28V415.52C602.2 414.19 598.52 411.33 594.02 408.26 593.61 407.95 593.1 408.46 593.3 408.87L605.17 431.28Z" fill="#422e25" opacity="0.25" stroke-width="4" stroke="none"></path><path d="M820.48 475.49L830.61 471.09" stroke="#422e25" stroke-width="4" stroke-linecap="round" stroke-linejoin="round" opacity="1" fill="none"></path><path d="M868.68 468.12C847.19 473.95 832.15 479.38 832.15 479.38" stroke="#422e25" stroke-width="4" stroke-linecap="round" stroke-linejoin="round" opacity="1" fill="none"></path><path d="M876.56 478.87C859.98 482.76 840.85 490.02 840.85 490.02" stroke="#422e25" stroke-width="4" stroke-linecap="round" stroke-linejoin="round" opacity="1" fill="none"></path><path d="M632.08 359.14C633.77 359.14 635.15 357.76 635.15 356.07 635.15 354.38 633.77 353 632.08 353 630.39 353 629.01 354.38 629.01 356.07 629.01 357.76 630.39 359.14 632.08 359.14Z" fill="#0b0c0c" opacity="1" stroke-width="4" stroke="none"></path><path d="M716.61 554.9C715.08 551.52 685.2 482.35 668.41 460.24 649.38 435.27 609.47 433.94 605.58 433.84 605.38 433.84 605.27 433.74 605.27 433.53V421.15H532.31L532.82 438.24C532.82 438.24 484.93 466.28 496.19 542.01 506.62 612.62 510.1 638.1 510.1 638.1H644.47L648.36 601.16C648.36 601.05 648.56 601.05 648.56 601.16 650.81 605.86 676.8 658.36 718.04 656.01 748.44 654.16 766.35 625.72 782.11 597.98L756.73 563.19 726.13 546C720.6 551.01 717.23 554.29 716.61 554.9Z" fill="#61ffa4" opacity="1" stroke-width="4" stroke="none"></path><path d="M644.36 638.1L648.25 600.75 621.44 550.5C621.13 549.89 620.21 550.09 620.21 550.81L617.55 638.2 644.36 638.1Z" fill="#18271e" opacity="0.25" stroke-width="4" stroke="none"></path><path d="M749.05 524.1C744.04 528.7 739.33 533.31 735.13 537.4 731.66 540.68 728.89 543.44 726.13 546L782.11 597.98C788.96 587.24 794.08 577.41 797.97 569.74V569.64L749.05 524.1Z" fill="#30ffb0" opacity="1" stroke-width="4" stroke="none"></path><path d="M716.61 554.9L721.63 566.46" stroke="#18271e" stroke-width="4" stroke-linecap="round" stroke-linejoin="round" opacity="1" fill="none"></path><path d="M648.25 600.75C635.56 578.23 621.44 550.5 621.44 550.5" stroke="#18271e" stroke-width="4" stroke-linecap="round" stroke-linejoin="round" opacity="1" fill="none"></path><path d="M615.1 434.66C612.85 434.15 605.48 433.84 605.48 433.84" stroke="#18271e" stroke-width="4" stroke-linecap="round" stroke-linejoin="round" opacity="1" fill="none"></path><path d="M734.62 537.71C728.89 543.13 717.33 554.18 716.51 555V555.11L721.63 566.46C721.63 566.57 721.73 566.57 721.83 566.46L734.83 537.81C734.83 537.71 734.73 537.61 734.62 537.71Z" fill="#18271e" opacity="0.25" stroke-width="4" stroke="none"></path><path d="M645.69 316.67C637.51 299.27 620.83 288.63 593.1 285.66 561.27 282.28 535.89 302.24 532.1 333.35 531.08 340.31 530.88 357.6 531.08 375.82 531.08 376.33 530.67 376.84 530.06 376.74 521.46 376.12 460.88 374.18 459.24 436.91 459.24 437.42 458.83 437.93 458.32 438.04 452.18 438.96 417.7 445.71 404.8 483.47 403.16 488.38 401.94 493.19 401.22 497.8 398.35 515.2 401.42 530.95 408.08 543.75 418.31 563.5 437.04 576.39 455.46 578.13 455.56 578.13 455.56 578.13 455.66 578.13 523.51 584.27 527.81 512.74 527.91 510.28 527.91 510.28 527.91 510.18 528.01 510.18 560.35 501.69 575.39 483.88 581.43 464.64 590.23 436.5 579.89 405.39 576.11 395.46 575.39 393.52 574.27 391.78 572.83 390.35 567.2 384.41 551.75 366.2 562.19 351.15 575.08 332.73 599.44 355.15 600.36 356.07 600.36 356.07 600.36 356.07 600.46 356.07 600.97 355.86 605.48 354.02 607.11 339.8 607.11 339.69 607.22 339.69 607.32 339.69 624.41 348.19 624.2 332.12 624.2 330.38 624.2 330.28 624.31 330.28 624.31 330.28 637.51 338.46 648.56 332.84 649.28 332.43 649.28 332.43 649.28 332.43 649.28 332.32 648.97 326.39 647.64 320.76 645.69 316.67Z" fill="#2d2a2a" opacity="1" stroke-width="4" stroke="none"></path><path d="M508.16 483.47C506.73 485.62 468.15 546.1 411.76 507.52 408.08 504.86 404.29 501.58 401.32 497.9 401.22 497.8 401.12 497.9 401.12 497.9 398.35 515.3 401.32 530.85 408.08 543.64 418.41 563.29 437.24 576.29 455.66 578.03 482.17 580.48 498.95 571.07 509.59 558.48 526.27 538.83 527.91 511.61 527.91 510.18 527.91 510.18 527.91 510.08 528.01 510.08 559.84 501.69 575.08 484.39 581.22 464.95 581.22 464.85 581.12 464.74 581.02 464.85 566.39 481.53 543.77 492.58 508.16 483.47Z" fill="#000000" opacity="0.25" stroke-width="4" stroke="none"></path><path d="M530.98 363.13V376.12" stroke="#000000" stroke-width="4" stroke-linecap="round" stroke-linejoin="round" opacity="1" fill="none"></path><path d="M543.87 504.65C537.12 507.42 532.62 508.85 527.91 510.28" stroke="#18271e" stroke-width="4" stroke-linecap="round" stroke-linejoin="round" opacity="1" fill="none"></path><path d="M540.8 682.72H592.17C593.1 682.72 593.91 683.53 593.71 684.56 592.28 692.95 584.91 727.84 558.71 727.84 531.9 727.84 537.83 691.21 539.27 683.94 539.47 683.23 540.09 682.72 540.8 682.72Z" fill="#2eae7d" opacity="1" stroke-width="4" stroke="none"></path><path d="M509.9 638.3H644.26" stroke="#18271e" stroke-width="4" stroke-linecap="round" stroke-linejoin="round" opacity="1" fill="none"></path><path d="M531.49 307.05C554.88 307.05 573.86 288.08 573.86 264.68 573.86 241.29 554.88 222.32 531.49 222.32 508.09 222.32 489.12 241.29 489.12 264.68 489.12 288.08 508.09 307.05 531.49 307.05Z" fill="#2d2a2a" opacity="1" stroke-width="4" stroke="none"></path><path d="M714.97 1027.17C716.71 1034.33 718.66 1041.7 720.81 1048.87L720.91 1048.97H859.16C859.27 1048.97 859.27 1048.97 859.27 1048.87 859.27 1047.84 859.16 1038.43 852.51 1027.07L852.41 1026.97H715.08C715.08 1027.07 714.97 1027.17 714.97 1027.17Z" fill="#1f3026" opacity="1" stroke-width="4" stroke="none"></path><path d="M565.98 289.24C560.66 296.71 552.98 302.34 544.08 305.1" stroke="#000000" stroke-width="4" stroke-linecap="round" stroke-linejoin="round" opacity="1" fill="none"></path></g><g><path d="M532.83 820.98H563.63V955.02H532.83V820.98Z" fill="#1c7d4f" opacity="1" stroke-width="4" stroke="none"></path><path d="M563.63 850.46V820.98H532.83V858.58L563.63 850.46Z" fill="#000000" opacity="0.3" stroke-width="4" stroke="none"></path><path d="M513.14 814.89H583.2V845.69H513.14V814.89Z" fill="#32ff99" opacity="1" stroke-width="4" stroke="none"></path><path d="M513.14 833.99L583.2 819.31V814.89H513.14V833.99Z" fill="#000000" opacity="0.3" stroke-width="4" stroke="none"></path><path d="M583.08 944.04H513.26C513.14 944.04 513.14 944.04 513.14 944.16V974.24C513.14 974.36 513.14 974.36 513.26 974.36H583.08C583.2 974.36 583.2 974.36 583.2 974.24L583.08 944.04C583.2 944.04 583.2 944.04 583.08 944.04Z" fill="#32ff99" opacity="1" stroke-width="4" stroke="none"></path><path d="M414.19 807.37C406.55 807.37 393.54 809.4 392.23 801.88L365.73 652.32C362.27 632.63 375.4 616.64 395.09 616.64H518.03C537.73 616.64 556.47 632.63 560.05 652.32L584.4 790.42 583.2 805.94 414.19 807.37Z" fill="#32ff99" opacity="1" stroke-width="4" stroke="none"></path><path d="M392.11 799.02V799.97C392.11 808.21 398.79 814.89 407.03 814.89L708.05 814.89C716.29 814.89 722.97 808.21 722.97 799.97V799.02C722.97 790.78 716.29 784.1 708.05 784.1H407.03C398.79 784.1 392.11 790.78 392.11 799.02Z" fill="#1c7d4f" opacity="1" stroke-width="4" stroke="none"></path><path d="M452.86 1019V991.78C452.86 982.35 460.5 974.72 469.93 974.72H626.53C635.96 974.72 643.6 982.35 643.6 991.78V1019" stroke="#000000" stroke-width="4" stroke-linecap="round" stroke-linejoin="round" opacity="1" fill="none"></path><path d="M548.23 974.72V996.92" stroke="#000000" stroke-width="4" stroke-linecap="round" stroke-linejoin="round" opacity="1" fill="none"></path><path d="M453.22 1048.6C438.59 1048.6 426.72 1036.73 426.72 1022.1 426.72 1007.47 438.59 995.6 453.22 995.6 467.85 995.6 479.72 1007.47 479.72 1022.1 479.72 1036.73 467.85 1048.6 453.22 1048.6Z" fill="#000000" opacity="1" stroke-width="4" stroke="none"></path><path d="M453.22 1029.5C449.14 1029.5 445.82 1026.2 445.82 1022.1 445.82 1018.02 449.14 1014.7 453.22 1014.7 457.3 1014.7 460.62 1018.02 460.62 1022.1 460.62 1026.2 457.3 1029.5 453.22 1029.5Z" fill="#32ff99" opacity="1" stroke-width="4" stroke="none"></path><path d="M643.6 1048.6C628.97 1048.6 617.1 1036.73 617.1 1022.1 617.1 1007.47 628.97 995.6 643.6 995.6 658.23 995.6 670.1 1007.47 670.1 1022.1 670.1 1036.73 658.23 1048.6 643.6 1048.6Z" fill="#000000" opacity="1" stroke-width="4" stroke="none"></path><path d="M643.6 1029.5C639.52 1029.5 636.2 1026.2 636.2 1022.1 636.2 1018.02 639.52 1014.7 643.6 1014.7 647.68 1014.7 651 1018.02 651 1022.1 651 1026.2 647.68 1029.5 643.6 1029.5Z" fill="#32ff99" opacity="1" stroke-width="4" stroke="none"></path><path d="M547.75 1048.6C533.12 1048.6 521.26 1036.73 521.26 1022.1 521.26 1007.47 533.12 995.6 547.75 995.6 562.39 995.6 574.25 1007.47 574.25 1022.1 574.25 1036.73 562.39 1048.6 547.75 1048.6Z" fill="#000000" opacity="1" stroke-width="4" stroke="none"></path><path d="M547.75 1029.5C543.66 1029.5 540.35 1026.2 540.35 1022.1 540.35 1018.02 543.66 1014.7 547.75 1014.7 551.84 1014.7 555.15 1018.02 555.15 1022.1 555.15 1026.2 551.84 1029.5 547.75 1029.5Z" fill="#32ff99" opacity="1" stroke-width="4" stroke="none"></path><path d="M532.83 944.04H563.63" stroke="#000000" stroke-width="4" stroke-linecap="round" stroke-linejoin="round" opacity="1" fill="none"></path><path d="M532.71 845.69H563.63" stroke="#000000" stroke-width="4" stroke-linecap="round" stroke-linejoin="round" opacity="1" fill="none"></path><path d="M513.14 814.89H583.2" stroke="#000000" stroke-width="4" stroke-linecap="round" stroke-linejoin="round" opacity="1" fill="none"></path><path d="M525.67 784.1L511.83 710.09" stroke="#000000" stroke-width="4" stroke-linecap="round" stroke-linejoin="round" opacity="1" fill="none"></path><path d="M488.19 784.1L474.23 710.09" stroke="#000000" stroke-width="4" stroke-linecap="round" stroke-linejoin="round" opacity="1" fill="none"></path><path d="M450.71 784.1L436.75 710.09" stroke="#000000" stroke-width="4" stroke-linecap="round" stroke-linejoin="round" opacity="1" fill="none"></path></g><g><path d="M993.9 868.46H1224.63V1045.47C1224.63 1045.59 1224.63 1045.59 1224.5 1045.59H994.02C993.9 1045.59 993.9 1045.59 993.9 1045.47V868.46 868.46Z" fill="#32ff99" opacity="1" stroke-width="4" stroke="none"></path><path d="M980.84 815.49H1236.43C1236.56 815.49 1236.56 815.49 1236.56 815.61L1237.06 869.47C1237.06 869.59 1237.18 869.47 1237.06 869.47L980.72 868.97C980.59 868.97 980.72 867.33 980.72 867.21V815.49C980.72 815.49 980.72 815.49 980.84 815.49Z" fill="#2c5c44" opacity="1" stroke-width="4" stroke="none"></path><path d="M1141.9 871.6C1141.9 888.93 1127.84 902.86 1110.64 902.86H1107C1089.55 902.86 1075.62 888.93 1075.62 871.6H1141.9Z" fill="#000000" opacity="1" stroke-width="4" stroke="none"></path><path d="M993.65 869.47H1224.38" stroke="#000000" stroke-width="4" stroke-linecap="round" stroke-linejoin="round" opacity="1" fill="none"></path></g></svg>